<svg width="2560" height="446" viewBox="0 0 2560 446" fill="none" xmlns="http://www.w3.org/2000/svg">
<g clip-path="url(#clip0_319_734)">
<g clip-path="url(#clip1_319_734)">
<path d="M0 148.025C0 148.025 312.667 -61.2814 759.333 148.025C1206 357.332 541.333 -88.4736 1206 148.025C1870.67 384.524 1474.67 206.2 1883 148.025C2291.33 89.8507 2560 148.025 2560 148.025V5117H0V148.025Z" fill="#17182D"/>
</g>
<g opacity="0.03" clip-path="url(#clip2_319_734)">
<path d="M498.175 899.608C590.275 853.675 721.97 760.043 877.765 627.544C944.043 571.012 1080.04 468.537 1179.89 399.638C1358.06 276.856 1377.86 259.189 1349.46 248.59C1325.35 238.873 1320.19 241.532 1027.54 422.613C734.02 604.578 518.833 747.676 418.986 828.942C293.318 930.524 376.81 960.557 498.175 899.608Z" fill="white"/>
<path d="M-115.229 664.209C-67.5422 639.765 23.965 580.145 219.223 453.751C489.234 279.064 657.427 178.307 683.203 152.669L702.536 133.59C674.826 112.723 658.071 93.6446 569.141 136.571C449.28 193.808 31.698 468.65 -124.895 589.082C-213.18 655.856 -187.403 701.173 -115.229 664.209Z" fill="white"/>
<path d="M1890.18 128.644C1828.2 160.444 550.853 1046.42 157.492 1354.7C-10.3544 1486.31 96.3783 1506.63 212.579 1449.21C361.489 1375.9 434.652 1274.31 1477.02 563.239C1894.48 277.928 2010.68 185.175 2010.68 135.709C2010.68 105.676 1941.82 102.145 1890.18 128.644Z" fill="white"/>
<path d="M1846.11 491.508C1922.71 419.958 2111.22 275.093 2164.58 236.227C2186.96 217.677 2128.43 206.194 2098.3 222.977C1586.16 510.941 1118.77 896.962 1273.71 896.962C1338.26 896.962 1644.69 681.422 1846.11 491.508Z" fill="white"/>
<path d="M2112.94 493.283C1896.03 617.832 1854.71 661.989 1927.02 697.322C1983.83 724.705 2001.04 716.755 2156.84 595.74C2360.83 436.741 2283.37 395.234 2112.94 493.283Z" fill="white"/>
</g>
</g>
<defs>
<clipPath id="clip0_319_734">
<rect width="2560" height="446" fill="white"/>
</clipPath>
<clipPath id="clip1_319_734">
<rect width="2560" height="391" fill="white" transform="translate(0 55)"/>
</clipPath>
<clipPath id="clip2_319_734">
<rect width="2560" height="1771" fill="white" transform="translate(0 63)"/>
</clipPath>
</defs>
</svg>
